<?xml version="1.0" encoding="utf-8"?>
<!-- Generator: Adobe Illustrator 16.0.0, SVG Export Plug-In . SVG Version: 6.00 Build 0)  -->
<!DOCTYPE svg PUBLIC "-//W3C//DTD SVG 1.1//EN" "http://www.w3.org/Graphics/SVG/1.1/DTD/svg11.dtd">
<svg version="1.1" xmlns="http://www.w3.org/2000/svg" xmlns:xlink="http://www.w3.org/1999/xlink" x="0px" y="0px" width="500px"
	 height="500px" viewBox="0 0 500 500" enable-background="new 0 0 500 500" xml:space="preserve">
<g id="Layer_1">
	<g display="none">
		<path display="inline" d="M472.952,217.981h-30.91v-61.717c17.786,13.329,29.616,34.134,30.807,57.753
			c0.041,0.452,0.063,0.883,0.063,1.315c0,0.082,0.02,0.123,0,0.205v0.082c0.02,0.062,0.02,0.144,0.02,0.206v0.184
			C472.952,216.667,472.952,217.324,472.952,217.981"/>
		<path display="inline" fill="#FFCE00" d="M472.85,214.017c-2.054-40.727-35.736-73.116-76.978-73.116
			c-42.555,0-77.059,34.504-77.059,77.08H267.57c0-56.727,45.965-102.691,102.691-102.691
			C425.632,115.29,470.796,159.119,472.85,214.017"/>
		<path display="inline" fill="#FFAA00" d="M472.911,214.736v0.596c0-0.452-0.021-0.884-0.063-1.315
			c-2.053-54.898-47.217-98.727-102.587-98.727c-56.727,0-102.691,45.965-102.691,102.691h-45.656
			c0-69.337,56.192-125.529,125.509-125.529C415.671,92.452,471.186,146.899,472.911,214.736"/>
		<path display="inline" fill="#D38200" d="M472.911,214.736c-1.726-67.837-57.24-122.284-125.488-122.284
			c-69.316,0-125.509,56.192-125.509,125.529h-35.901c0-79.236,64.223-143.479,143.459-143.479
			C407.62,74.502,471.186,136.999,472.911,214.736"/>
		<path display="inline" fill="#FFCE00" d="M442.042,222.335c-0.021,0.616-0.041,1.232-0.062,1.869c0,0.39-0.021,0.801-0.041,1.212
			c-0.021,0.287-0.021,0.554-0.041,0.842c-4.313,85.008-74.615,152.619-160.69,152.619c-88.869,0-160.896-72.048-160.896-160.896
			h48.162c0,75.541,61.265,136.805,136.825,136.805C379.38,354.786,439.742,295.861,442.042,222.335"/>
		<path display="inline" fill="#FFAA00" d="M441.898,226.258c-4.313,97.741-84.926,175.663-183.755,175.663
			c-101.602,0-183.96-82.358-183.96-183.94h46.129c0,88.848,72.027,160.896,160.896,160.896
			C367.283,378.877,437.585,311.266,441.898,226.258"/>
		<path display="inline" fill="#D38200" d="M441.898,226.258c-4.313,110.763-95.482,199.241-207.333,199.241
			c-114.624,0-207.518-92.915-207.518-207.518h47.136c0,101.582,82.358,183.94,183.96,183.94
			C356.973,401.921,437.585,323.999,441.898,226.258"/>
		<path display="inline" fill="#D38200" d="M401.767,160.063c-7.764,0-14.068,6.305-14.068,14.068
			c0,7.764,6.305,14.069,14.068,14.069c7.763,0,14.068-6.305,14.068-14.069C415.835,166.368,409.529,160.063,401.767,160.063
			L401.767,160.063z M405.341,177.315c-3.595,0-6.511-2.917-6.511-6.531c0-3.594,2.916-6.511,6.511-6.511
			c3.614,0,6.531,2.917,6.531,6.511C411.872,174.398,408.955,177.315,405.341,177.315L405.341,177.315z"/>
	</g>
</g>
<g id="Layer_2">
	<g display="none">
		<circle display="inline" fill="none" stroke="#D38200" stroke-miterlimit="10" cx="492.412" cy="268.98" r="76.5"/>
		<circle display="inline" fill="none" stroke="#D38200" stroke-miterlimit="10" cx="401.808" cy="268.98" r="136.173"/>
		
			<rect x="415.912" y="171.5" display="inline" fill="none" stroke="#D38200" stroke-miterlimit="10" width="122.588" height="251.5"/>
		<line fill="none" stroke="#D38200" stroke-miterlimit="10" x1="580.5" y1="268.98" x2="521" y2="268.98"/>
	</g>
	<g>
		<path fill="#FF6600" d="M340.322,34.564c-16.34-5.675-33.864-8.752-52.137-8.752c-87.83,0-159.03,71.2-159.03,159.03v281.597
			c88.89-9.083,165.599-59.246,210.854-131.214c26.235-41.702,41.869-90.7,43.219-143.274V57.328
			C370.299,47.682,355.851,39.948,340.322,34.564z M299.327,122.936c-16.152,0-29.248-13.097-29.248-29.25
			c0-16.131,13.096-29.249,29.248-29.249c16.133,0,29.229,13.118,29.229,29.249C328.557,109.838,315.46,122.936,299.327,122.936z"/>
		<path fill="#FF6600" d="M320.324,86.722c0,7.525-6.05,13.596-13.575,13.596c-7.463,0-13.533-6.07-13.533-13.596
			c0-7.463,6.07-13.533,13.533-13.533C314.274,73.189,320.324,79.259,320.324,86.722z"/>
	</g>
</g>
</svg>
