<svg id="Layer_1" data-name="Layer 1" xmlns="http://www.w3.org/2000/svg" viewBox="0 0 445.9 351"><defs><style>.cls-1{fill:#ed1c24;}.cls-2{fill:#f7941d;}.cls-3{fill:#fff200;}</style></defs><path d="M473,218H442V156.26A76.94,76.94,0,0,1,472.85,214c0,.45.06.88.06,1.31a.74.74,0,0,1,0,.21v.08a.68.68,0,0,1,0,.2V216C473,216.67,473,217.32,473,218Z" transform="translate(-27.05 -74.5)"/><path class="cls-1" d="M472.85,214a77.07,77.07,0,0,0-154,4H267.57a102.68,102.68,0,0,1,205.28-4Z" transform="translate(-27.05 -74.5)"/><path class="cls-2" d="M472.91,214.74v.59c0-.45,0-.88-.06-1.31a102.68,102.68,0,0,0-205.28,4H221.91a125.52,125.52,0,0,1,251-3.24Z" transform="translate(-27.05 -74.5)"/><path class="cls-3" d="M472.91,214.74a125.52,125.52,0,0,0-251,3.24H186a143.47,143.47,0,0,1,286.9-3.24Z" transform="translate(-27.05 -74.5)"/><path class="cls-3" d="M442,222.34q0,.91-.06,1.86c0,.39,0,.81,0,1.22s0,.55,0,.84A160.9,160.9,0,0,1,120.31,218h48.16A136.82,136.82,0,0,0,442,222.34Z" transform="translate(-27.05 -74.5)"/><path class="cls-2" d="M441.9,226.26C437.59,324,357,401.92,258.14,401.92c-101.6,0-184-82.36-184-183.94h46.13a160.9,160.9,0,0,0,321.59,8.28Z" transform="translate(-27.05 -74.5)"/><path class="cls-1" d="M441.9,226.26C437.59,337,346.42,425.5,234.57,425.5,119.94,425.5,27.05,332.58,27.05,218H74.18c0,101.58,82.36,183.94,184,183.94C357,401.92,437.59,324,441.9,226.26Z" transform="translate(-27.05 -74.5)"/><path class="cls-1" d="M401.77,160.06a14.07,14.07,0,1,0,14.07,14.07A14.08,14.08,0,0,0,401.77,160.06Zm3.57,17.26a6.53,6.53,0,1,1,6.53-6.54A6.52,6.52,0,0,1,405.34,177.32Z" transform="translate(-27.05 -74.5)"/></svg>